<svg id="Layer_1" data-name="Layer 1" xmlns="http://www.w3.org/2000/svg" viewBox="0 0 24 24"><defs><style>.cls-1{fill:#fff;opacity:0;}.cls-2,.cls-3{fill:none;stroke:#030835;stroke-linecap:round;}.cls-2{stroke-miterlimit:10;stroke-width:1.5px;}.cls-3{stroke-linejoin:round;}</style></defs><title>3D</title><rect class="cls-1" width="24" height="24"/><g id="_3D" data-name="3D"><path class="cls-2" d="M188.886,185.67295l-6,2.4a4.00009,4.00009,0,0,1-2.97113,0l-6-2.4a4,4,0,0,1-2.51444-3.71391v-7.2a4,4,0,0,1,2.51444-3.71391l6-2.4a4.00009,4.00009,0,0,1,2.97113,0l6,2.4a4,4,0,0,1,2.51443,3.71391v7.2A4,4,0,0,1,188.886,185.67295Z" transform="translate(-169.40041 -166.35904)"/><path class="cls-3" d="M181.40041,184.31464v-5.4431a3.379,3.379,0,0,1,2.12405-3.13728l4.31826-1.72731-5.18739,2.075a3.379,3.379,0,0,1-2.50983,0l-5.18739-2.075" transform="translate(-169.40041 -166.35904)"/></g></svg>