<svg id="Layer_1" data-name="Layer 1" xmlns="http://www.w3.org/2000/svg" viewBox="0 0 24 24"><defs><style>.cls-1,.cls-3,.cls-4{fill:none;}.cls-2{fill:#ff48ac;opacity:0.1;}.cls-3,.cls-4{stroke:#ff48ac;stroke-linecap:round;stroke-width:1.5px;}.cls-3{stroke-miterlimit:10;}.cls-4{stroke-linejoin:round;}</style></defs><title>3D</title><rect class="cls-1" width="24" height="24"/><g id="_3D" data-name="3D"><path class="cls-2" d="M182.15882,189.9326l-6,2.4a4,4,0,0,1-2.97112,0l-6-2.4a4,4,0,0,1-2.51444-3.7139v-7.2a4,4,0,0,1,2.51444-3.71391l6-2.4a4,4,0,0,1,2.97112,0l6,2.4a4,4,0,0,1,2.51444,3.71391v7.2A4,4,0,0,1,182.15882,189.9326Z" transform="translate(-162.67326 -170.6187)"/><path class="cls-3" d="M182.15882,189.9326l-6,2.4a4,4,0,0,1-2.97112,0l-6-2.4a4,4,0,0,1-2.51444-3.7139v-7.2a4,4,0,0,1,2.51444-3.71391l6-2.4a4,4,0,0,1,2.97112,0l6,2.4a4,4,0,0,1,2.51444,3.71391v7.2A4,4,0,0,1,182.15882,189.9326Z" transform="translate(-162.67326 -170.6187)"/><path class="cls-4" d="M174.67326,188.5743v-5.4431a3.379,3.379,0,0,1,2.12405-3.13729l4.31826-1.7273-5.18739,2.075a3.379,3.379,0,0,1-2.50983,0l-5.1874-2.075" transform="translate(-162.67326 -170.6187)"/></g></svg>