<svg id="Layer_1" data-name="Layer 1" xmlns="http://www.w3.org/2000/svg" viewBox="0 0 24 24"><defs><style>.cls-1,.cls-4{fill:none;}.cls-2{opacity:0.1;}.cls-3{fill:#fc3ac6;}.cls-4{stroke:#fc3ac6;stroke-linecap:round;stroke-miterlimit:10;stroke-width:1.5px;}</style></defs><title>Attachment</title><rect class="cls-1" width="24" height="24"/><g id="Attachment"><g class="cls-2"><path class="cls-3" d="M172.40865,183.687a5.02557,5.02557,0,0,0,7.58309.5436l3.01716-3.02005a5.031,5.031,0,0,0-7.11043-7.11729l-7.04938,7.0368" transform="translate(-162.42042 -170.68034)"/><path class="cls-3" d="M176.43219,181.67367a5.02556,5.02556,0,0,0-7.5831-.5436l-3.01716,3.02a5.031,5.031,0,0,0,7.11043,7.11729l7.04938-7.0368" transform="translate(-162.42042 -170.68034)"/></g><path class="cls-4" d="M172.40865,183.687a5.02557,5.02557,0,0,0,7.58309.5436l3.01716-3.02005a5.031,5.031,0,0,0-7.11043-7.11729l-1.72982,1.72144" transform="translate(-162.42042 -170.68034)"/><path class="cls-4" d="M176.43219,181.67367a5.02556,5.02556,0,0,0-7.5831-.5436l-3.01716,3.02a5.031,5.031,0,0,0,7.11043,7.11729l1.71976-1.72144" transform="translate(-162.42042 -170.68034)"/></g></svg>