<svg id="Layer_1" data-name="Layer 1" xmlns="http://www.w3.org/2000/svg" viewBox="0 0 24 24"><defs><style>.cls-1,.cls-3{fill:none;}.cls-2{fill:#20a8ed;opacity:0.1;}.cls-3{stroke:#20a8ed;stroke-linecap:round;stroke-miterlimit:10;stroke-width:1.5px;}</style></defs><title>Bag</title><rect class="cls-1" width="24" height="24"/><g id="Bag"><path class="cls-2" d="M178.61622,192.68107h-8.01673a5.98981,5.98981,0,0,1-5.88763-7.09154l.86727-4.63469a5.98981,5.98981,0,0,1,5.88762-4.8881h6.2822a5.98983,5.98983,0,0,1,5.88763,4.8881l.86726,4.63469A5.98981,5.98981,0,0,1,178.61622,192.68107Z" transform="translate(-162.60785 -170.68107)"/><path class="cls-3" d="M178.61622,192.68107h-8.01673a5.98981,5.98981,0,0,1-5.88763-7.09154l.86727-4.63469a5.98981,5.98981,0,0,1,5.88762-4.8881h6.2822a5.98983,5.98983,0,0,1,5.88763,4.8881l.86726,4.63469A5.98981,5.98981,0,0,1,178.61622,192.68107Z" transform="translate(-162.60785 -170.68107)"/><line class="cls-3" x1="14.71978" y1="16.69283" x2="9.28022" y2="16.69283"/><line class="cls-3" x1="15.97802" y1="7.64835" x2="14.71978" y2="2"/><line class="cls-3" x1="8.02198" y1="7.64835" x2="9.28022" y2="2"/></g></svg>