<svg id="Layer_1" data-name="Layer 1" xmlns="http://www.w3.org/2000/svg" viewBox="0 0 24 24"><defs><style>.cls-1{fill:#fff;opacity:0;}.cls-2,.cls-3{fill:none;stroke:#030835;stroke-miterlimit:10;}.cls-2{stroke-width:1.5px;}</style></defs><title>Chart</title><rect class="cls-1" width="24" height="24"/><g id="Chart"><path class="cls-2" d="M183.48325,178.22117l6.41006,0a1.52114,1.52114,0,0,1,1.491,1.79822,10.0812,10.0812,0,1,1-11.725-11.703,1.52344,1.52344,0,0,1,1.80812,1.48755l0,6.40356A2.01481,2.01481,0,0,0,183.48325,178.22117Z" transform="translate(-169.40522 -166.28951)"/><path class="cls-3" d="M189.45564,170.2328a7.11257,7.11257,0,0,1,1.91188,3.45176,1.32388,1.32388,0,0,1-1.29943,1.60347h-3.90328a1.76439,1.76439,0,0,1-1.76441-1.76441v-3.90328a1.32389,1.32389,0,0,1,1.60347-1.29943A7.11265,7.11265,0,0,1,189.45564,170.2328Z" transform="translate(-169.40522 -166.28951)"/></g></svg>