<svg id="Layer_1" data-name="Layer 1" xmlns="http://www.w3.org/2000/svg" viewBox="0 0 24 24"><defs><style>.cls-1,.cls-4{fill:none;}.cls-2{opacity:0.1;}.cls-3{fill:#42008e;}.cls-4{stroke:#42008e;stroke-miterlimit:10;stroke-width:1.5px;}</style></defs><title>Chart</title><rect class="cls-1" width="24" height="24"/><g id="Chart"><g class="cls-2"><path class="cls-3" d="M176.75422,182.48773l6.41006,0a1.52114,1.52114,0,0,1,1.491,1.79822,10.0812,10.0812,0,1,1-11.725-11.703,1.52344,1.52344,0,0,1,1.80812,1.48755l0,6.40356A2.01481,2.01481,0,0,0,176.75422,182.48773Z" transform="translate(-162.67619 -170.55607)"/><path class="cls-3" d="M182.72661,174.49937a7.11261,7.11261,0,0,1,1.91188,3.45176,1.32387,1.32387,0,0,1-1.29943,1.60346l-3.90328,0a1.7644,1.7644,0,0,1-1.76441-1.76442v-3.90327a1.32389,1.32389,0,0,1,1.60347-1.29944A7.11259,7.11259,0,0,1,182.72661,174.49937Z" transform="translate(-162.67619 -170.55607)"/></g><path class="cls-4" d="M176.75422,182.48773l6.41006,0a1.52114,1.52114,0,0,1,1.491,1.79822,10.0812,10.0812,0,1,1-11.725-11.703,1.52344,1.52344,0,0,1,1.80812,1.48755l0,6.40356A2.01481,2.01481,0,0,0,176.75422,182.48773Z" transform="translate(-162.67619 -170.55607)"/><path class="cls-4" d="M182.72661,174.49937a7.11261,7.11261,0,0,1,1.91188,3.45176,1.32387,1.32387,0,0,1-1.29943,1.60346l-3.90328,0a1.7644,1.7644,0,0,1-1.76441-1.76442v-3.90327a1.32389,1.32389,0,0,1,1.60347-1.29944A7.11259,7.11259,0,0,1,182.72661,174.49937Z" transform="translate(-162.67619 -170.55607)"/></g></svg>