<svg id="Layer_1" data-name="Layer 1" xmlns="http://www.w3.org/2000/svg" viewBox="0 0 24 24"><defs><style>.cls-1,.cls-4{fill:none;}.cls-2{opacity:0.1;}.cls-3{fill:#24acff;}.cls-4{stroke:#24acff;stroke-linecap:round;stroke-miterlimit:10;stroke-width:1.5px;}</style></defs><title>Cloud</title><rect class="cls-1" width="24" height="24"/><g id="Cloud"><g class="cls-2"><path class="cls-3" d="M171.22046,184.75475a3.68565,3.68565,0,0,0-2.87509-1.47392.34019.34019,0,0,0-.1-.01,3.705,3.705,0,0,0,0,7.41l.00407-.00264h11.011l.00494.00264a5.283,5.283,0,0,0,.83-10.5,6.14715,6.14715,0,1,0-11.75,3.1" transform="translate(-162.54537 -170.68083)"/></g><path class="cls-4" d="M171.22046,184.75475a3.68565,3.68565,0,0,0-2.87509-1.47392.34019.34019,0,0,0-.1-.01,3.705,3.705,0,0,0,0,7.41l.00407-.00264h11.011l.00494.00264a5.283,5.283,0,0,0,.83-10.5,6.14715,6.14715,0,1,0-11.75,3.1" transform="translate(-162.54537 -170.68083)"/></g></svg>