<svg id="Layer_1" data-name="Layer 1" xmlns="http://www.w3.org/2000/svg" viewBox="0 0 24 24"><defs><style>.cls-1,.cls-3{fill:none;}.cls-2{fill:#5598f9;opacity:0.1;}.cls-3{stroke:#5598f9;stroke-linecap:round;stroke-miterlimit:10;stroke-width:1.5px;}</style></defs><title>Copy</title><rect class="cls-1" width="24" height="24"/><g id="Heart"><path class="cls-2" d="M183.5978,176.27843a5.81416,5.81416,0,0,0-8.34755-1.41453.97717.97717,0,0,1-1.17546,0,5.81416,5.81416,0,0,0-8.34752,1.4145,6.84387,6.84387,0,0,0,.137,7.53222c1.93424,2.97967,5.59944,7.87618,8.79825,7.87618s6.864-4.89654,8.79822-7.87618A6.84388,6.84388,0,0,0,183.5978,176.27843Z" transform="translate(-162.66252 -170.6868)"/><path class="cls-3" d="M183.5978,176.27843a5.81416,5.81416,0,0,0-8.34755-1.41453.97717.97717,0,0,1-1.17546,0,5.81416,5.81416,0,0,0-8.34752,1.4145,6.84387,6.84387,0,0,0,.137,7.53222c1.93424,2.97967,5.59944,7.87618,8.79825,7.87618s6.864-4.89654,8.79822-7.87618A6.84388,6.84388,0,0,0,183.5978,176.27843Z" transform="translate(-162.66252 -170.6868)"/></g></svg>