<svg id="Layer_1" data-name="Layer 1" xmlns="http://www.w3.org/2000/svg" viewBox="0 0 24 24"><defs><style>.cls-1{fill:#fff;opacity:0;}.cls-2{fill:none;stroke:#030835;stroke-linecap:round;stroke-miterlimit:10;stroke-width:1.5px;}</style></defs><title>Dashboard</title><rect class="cls-1" width="24" height="24"/><g id="Dashboard"><path class="cls-2" d="M93.53773,266.1295l-7.25984-3.848a1.8661,1.8661,0,0,1,0-3.29762l7.25984-3.848a3.73218,3.73218,0,0,1,3.49574,0l7.25985,3.848a1.8661,1.8661,0,0,1,0,3.29762l-7.25985,3.848A3.73223,3.73223,0,0,1,93.53773,266.1295Z" transform="translate(-83.2856 -252.70127)"/><path class="cls-2" d="M104.29332,267.12105a1.8661,1.8661,0,0,1,0,3.29762l-7.25985,3.848a3.73223,3.73223,0,0,1-3.49574,0l-7.25984-3.848a1.8661,1.8661,0,0,1,0-3.29762" transform="translate(-83.2856 -252.70127)"/></g></svg>