<svg id="Layer_1" data-name="Layer 1" xmlns="http://www.w3.org/2000/svg" viewBox="0 0 24 24"><defs><style>.cls-1,.cls-3{fill:none;}.cls-2{fill:#4d1870;opacity:0.1;}.cls-3{stroke:#4d1870;stroke-linecap:round;stroke-miterlimit:10;stroke-width:1.5px;}</style></defs><title>Dashboard</title><rect class="cls-1" width="24" height="24"/><g id="Dashboard"><path class="cls-2" d="M172.92279,184.10953l-7.25985-3.848a1.8661,1.8661,0,0,1,0-3.29762l7.25985-3.848a3.73216,3.73216,0,0,1,3.49573,0l7.25985,3.848a1.8661,1.8661,0,0,1,0,3.29762l-7.25985,3.848A3.73216,3.73216,0,0,1,172.92279,184.10953Z" transform="translate(-162.67066 -170.68131)"/><path class="cls-3" d="M172.92279,184.10953l-7.25985-3.848a1.8661,1.8661,0,0,1,0-3.29762l7.25985-3.848a3.73216,3.73216,0,0,1,3.49573,0l7.25985,3.848a1.8661,1.8661,0,0,1,0,3.29762l-7.25985,3.848A3.73216,3.73216,0,0,1,172.92279,184.10953Z" transform="translate(-162.67066 -170.68131)"/><path class="cls-3" d="M183.67837,185.10108a1.8661,1.8661,0,0,1,0,3.29762l-7.25985,3.848a3.73221,3.73221,0,0,1-3.49573,0l-7.25985-3.848a1.8661,1.8661,0,0,1,0-3.29762" transform="translate(-162.67066 -170.68131)"/></g></svg>