<svg id="Layer_1" data-name="Layer 1" xmlns="http://www.w3.org/2000/svg" viewBox="0 0 24 24"><defs><style>.cls-1,.cls-3,.cls-4{fill:none;}.cls-2{fill:#21cc4d;opacity:0.1;}.cls-3,.cls-4{stroke:#21cc4d;stroke-linecap:round;stroke-width:1.5px;}.cls-3{stroke-miterlimit:10;}.cls-4{stroke-linejoin:round;}</style></defs><title>Download</title><rect class="cls-1" width="24" height="24"/><g id="Download"><path class="cls-2" d="M179.67022,180.18111a5,5,0,0,1,5,5v.5a5,5,0,0,1-5,5h-10a5,5,0,0,1-5-5v-.5a5,5,0,0,1,5-5" transform="translate(-162.67022 -170.68111)"/><path class="cls-3" d="M169.67022,180.18111a5,5,0,0,0-5,5v.5a5,5,0,0,0,5,5h10a5,5,0,0,0,5-5v-.5a5,5,0,0,0-5-5" transform="translate(-162.67022 -170.68111)"/><line class="cls-3" x1="12" y1="4" x2="12" y2="13.99753"/><path class="cls-4" d="M177.526,183.23056l-2.39632,1.84652a.75273.75273,0,0,1-.91889,0l-2.38854-1.84053" transform="translate(-162.67022 -170.68111)"/></g></svg>