<svg id="Layer_1" data-name="Layer 1" xmlns="http://www.w3.org/2000/svg" viewBox="0 0 24 24"><defs><style>.cls-1,.cls-3{fill:none;}.cls-2{fill:#3effb5;opacity:0.1;}.cls-3{stroke:#3effb5;stroke-linecap:round;stroke-miterlimit:10;stroke-width:1.5px;}</style></defs><title>Education</title><rect class="cls-1" width="24" height="24"/><g id="Education"><path class="cls-2" d="M174.66745,183.68052a3.32208,3.32208,0,0,1-1.09236-.18415l-7.74321-2.68462a1.72586,1.72586,0,0,1,.00047-3.26125l7.74879-2.68555a3.3318,3.3318,0,0,1,2.18331.00047l7.74693,2.68461a1.72587,1.72587,0,0,1-.00046,3.26126l-7.75251,2.686A3.33521,3.33521,0,0,1,174.66745,183.68052Z" transform="translate(-162.67163 -170.68127)"/><path class="cls-3" d="M167.51229,184.31165v2.07281a2.63233,2.63233,0,0,0,1.72394,2.47062l4.527,1.66448a2.63229,2.63229,0,0,0,1.81678,0l4.527-1.66448a2.63233,2.63233,0,0,0,1.72394-2.47062v-2.07434" transform="translate(-162.67163 -170.68127)"/><path class="cls-3" d="M174.66745,183.68052a3.32208,3.32208,0,0,1-1.09236-.18415l-7.74321-2.68462a1.72586,1.72586,0,0,1,.00047-3.26125l7.74879-2.68555a3.3318,3.3318,0,0,1,2.18331.00047l7.74693,2.68461a1.72587,1.72587,0,0,1-.00046,3.26126l-7.75251,2.686A3.33521,3.33521,0,0,1,174.66745,183.68052Z" transform="translate(-162.67163 -170.68127)"/></g></svg>