<svg id="Layer_1" data-name="Layer 1" xmlns="http://www.w3.org/2000/svg" viewBox="0 0 24 24"><defs><style>.cls-1{fill:#fff;opacity:0;}.cls-2,.cls-3{fill:none;stroke:#030835;stroke-linecap:round;stroke-miterlimit:10;}.cls-3{stroke-width:1.5px;}</style></defs><title>Education</title><rect class="cls-1" width="24" height="24"/><g id="Education"><path class="cls-2" d="M88.12593,266.45868v2.07281a2.63233,2.63233,0,0,0,1.72393,2.47062l4.527,1.66448a2.63229,2.63229,0,0,0,1.81678,0l4.527-1.66448a2.63233,2.63233,0,0,0,1.72394-2.47062v-2.07434" transform="translate(-83.28527 -252.69518)"/><path class="cls-3" d="M95.28108,265.82755a3.322,3.322,0,0,1-1.09235-.18415l-7.74321-2.68462a1.72586,1.72586,0,0,1,.00046-3.26125l7.74879-2.68555a3.33183,3.33183,0,0,1,2.18332.00047l7.74693,2.68462a1.72586,1.72586,0,0,1-.00047,3.26125l-7.75251,2.686A3.33521,3.33521,0,0,1,95.28108,265.82755Z" transform="translate(-83.28527 -252.69518)"/></g></svg>