<svg id="Layer_1" data-name="Layer 1" xmlns="http://www.w3.org/2000/svg" viewBox="0 0 24 24"><defs><style>.cls-1,.cls-3{fill:none;}.cls-2{fill:#be22ff;opacity:0.1;}.cls-3{stroke:#be22ff;stroke-linecap:round;stroke-miterlimit:10;stroke-width:1.5px;}</style></defs><title>File</title><rect class="cls-1" width="24" height="24"/><g id="File"><path class="cls-2" d="M171.67731,172.72763a5,5,0,0,0-5,5v10a5,5,0,0,0,5,5h6a5,5,0,0,0,5-5v-7.58828a5,5,0,0,0-1.46449-3.53556l-2.41174-2.41172a5,5,0,0,0-3.53552-1.46444Z" transform="translate(-162.67731 -170.72763)"/><path class="cls-3" d="M171.67731,172.72763a5,5,0,0,0-5,5v10a5,5,0,0,0,5,5h6a5,5,0,0,0,5-5v-7.58828a5,5,0,0,0-1.46449-3.53556l-2.41174-2.41172a5,5,0,0,0-3.53552-1.46444Z" transform="translate(-162.67731 -170.72763)"/><path class="cls-3" d="M175.94542,176.443v1.01648a2,2,0,0,0,2,2h1.01648" transform="translate(-162.67731 -170.72763)"/><line class="cls-3" x1="9.88231" y1="14.91347" x2="14.11769" y2="14.91347"/></g></svg>