<svg id="Layer_1" data-name="Layer 1" xmlns="http://www.w3.org/2000/svg" viewBox="0 0 24 24"><defs><style>.cls-1,.cls-3,.cls-4{fill:none;}.cls-2{fill:#b75b3e;opacity:0.1;}.cls-3,.cls-4{stroke:#b75b3e;stroke-linecap:round;stroke-width:1.5px;}.cls-3{stroke-miterlimit:10;}.cls-4{stroke-linejoin:round;}</style></defs><title>Folder</title><rect class="cls-1" width="24" height="24"/><g id="Folder"><path class="cls-2" d="M179.67458,178.311H176.837a3.97769,3.97769,0,0,1-3.33829-1.81485h0a3.97769,3.97769,0,0,0-3.33828-1.81485h-.48589a5,5,0,0,0-5,5v6a5,5,0,0,0,5,5h10a5,5,0,0,0,5-5V183.311A5,5,0,0,0,179.67458,178.311Z" transform="translate(-162.67458 -170.68132)"/><path class="cls-3" d="M179.67458,178.311H176.837a3.97769,3.97769,0,0,1-3.33829-1.81485h0a3.97769,3.97769,0,0,0-3.33828-1.81485h-.48589a5,5,0,0,0-5,5v6a5,5,0,0,0,5,5h10a5,5,0,0,0,5-5V183.311A5,5,0,0,0,179.67458,178.311Z" transform="translate(-162.67458 -170.68132)"/><line class="cls-4" x1="14.71978" y1="15" x2="9.28022" y2="15"/></g></svg>