<svg id="Layer_1" data-name="Layer 1" xmlns="http://www.w3.org/2000/svg" viewBox="0 0 24 24"><defs><style>.cls-1,.cls-3{fill:none;}.cls-2{fill:#49db53;opacity:0.1;}.cls-3{stroke:#49db53;stroke-linecap:round;stroke-miterlimit:10;stroke-width:1.5px;}</style></defs><title>Headphone</title><rect class="cls-1" width="24" height="24"/><g id="Headphone"><path class="cls-2" d="M19.9956,13.31868h0A2.00439,2.00439,0,0,1,22,15.32307v2.67253A2.00439,2.00439,0,0,1,19.99561,20h0a2.00439,2.00439,0,0,1-2.00439-2.00439V15.32308A2.0044,2.0044,0,0,1,19.9956,13.31868Z"/><rect class="cls-2" x="2" y="13.31868" width="4.00879" height="6.68132" rx="2.00439"/><line class="cls-3" x1="13.69231" y1="9" x2="10.33455" y2="9"/><path class="cls-3" d="M164.67106,188.9239v-7.59157a6.66667,6.66667,0,0,1,6.66667-6.66667h6.66667a6.66667,6.66667,0,0,1,6.66666,6.66667v7.59157" transform="translate(-162.67106 -170.66566)"/><path class="cls-3" d="M19.9956,13.31868h0A2.00439,2.00439,0,0,1,22,15.32307v2.67253A2.00439,2.00439,0,0,1,19.99561,20h0a2.00439,2.00439,0,0,1-2.00439-2.00439V15.32308a2.0044,2.0044,0,0,1,2.0044-2.0044Z"/><path class="cls-3" d="M4.0044,13.31868h0a2.00439,2.00439,0,0,1,2.00439,2.00439v2.67253A2.00439,2.00439,0,0,1,4.0044,20h0A2.00439,2.00439,0,0,1,2,17.99561V15.32308A2.0044,2.0044,0,0,1,4.0044,13.31868Z"/></g></svg>