<svg id="Layer_1" data-name="Layer 1" xmlns="http://www.w3.org/2000/svg" viewBox="0 0 24 24"><defs><style>.cls-1{fill:#fff;opacity:0;}.cls-2,.cls-3{fill:none;stroke:#030835;stroke-linecap:round;stroke-miterlimit:10;}.cls-3{stroke-width:1.5px;}</style></defs><title>Headphone</title><rect class="cls-1" width="24" height="24"/><g id="Headphone"><line class="cls-2" x1="13.69231" y1="9" x2="10.33455" y2="9"/><path class="cls-3" d="M171.39681,184.66943v-7.59157a6.66667,6.66667,0,0,1,6.66666-6.66667h6.66667a6.66667,6.66667,0,0,1,6.66667,6.66667v7.59157" transform="translate(-169.39681 -166.41119)"/><path class="cls-3" d="M19.9956,13.31868h0A2.00439,2.00439,0,0,1,22,15.32307v2.67253A2.00439,2.00439,0,0,1,19.99561,20h0a2.00439,2.00439,0,0,1-2.00439-2.00439V15.32308A2.0044,2.0044,0,0,1,19.9956,13.31868Z"/><rect class="cls-3" x="2" y="13.31868" width="4.00879" height="6.68132" rx="2.00439"/></g></svg>