<svg id="Layer_1" data-name="Layer 1" xmlns="http://www.w3.org/2000/svg" viewBox="0 0 24 24"><defs><style>.cls-1,.cls-3,.cls-4{fill:none;}.cls-2{fill:#f48c37;opacity:0.1;}.cls-3,.cls-4{stroke:#f48c37;stroke-linecap:round;stroke-width:1.5px;}.cls-3{stroke-linejoin:round;}.cls-4{stroke-miterlimit:10;}</style></defs><title>Home</title><rect class="cls-1" width="24" height="24"/><g id="Home"><path class="cls-2" d="M179.67035,192.685h-10a5,5,0,0,1-5-5v-5.00915a5,5,0,0,1,1.601-3.667l5.67981-5.26481a4,4,0,0,1,5.43844,0l5.67981,5.26481a5,5,0,0,1,1.601,3.667V187.685A5,5,0,0,1,179.67035,192.685Z" transform="translate(-162.67035 -170.68132)"/><line class="cls-3" x1="14.71978" y1="15.00368" x2="9.28022" y2="15.00368"/><path class="cls-4" d="M179.67035,192.685h-10a5,5,0,0,1-5-5v-5.00915a5,5,0,0,1,1.601-3.667l5.67981-5.26481a4,4,0,0,1,5.43844,0l5.67981,5.26481a5,5,0,0,1,1.601,3.667V187.685A5,5,0,0,1,179.67035,192.685Z" transform="translate(-162.67035 -170.68132)"/></g></svg>