<svg id="Layer_1" data-name="Layer 1" xmlns="http://www.w3.org/2000/svg" viewBox="0 0 24 24"><defs><style>.cls-1,.cls-3{fill:none;}.cls-2{fill:#aeff22;opacity:0.1;}.cls-3{stroke:#aeff22;stroke-linecap:round;stroke-miterlimit:10;stroke-width:1.5px;}</style></defs><title>Invoice</title><rect class="cls-1" width="24" height="24"/><g id="Invoice"><path class="cls-2" d="M182.66976,179.67809v8a4.99541,4.99541,0,0,1-5,5h-6a4.99541,4.99541,0,0,1-5-5v-8a5.00253,5.00253,0,0,1,4.55-4.98h.22a1.9871,1.9871,0,0,0,1.99,1.95h2.48a1.98747,1.98747,0,0,0,1.41-.58,1.948,1.948,0,0,0,.58-1.35h.36A4.998,4.998,0,0,1,182.66976,179.67809Z" transform="translate(-162.66981 -170.68047)"/><line class="cls-3" x1="9.61544" y1="16.74964" x2="14.38467" y2="16.74964"/><line class="cls-3" x1="8.00005" y1="13.23865" x2="16.00005" y2="13.23865"/><path class="cls-3" d="M178.26208,174.71756a5.00083,5.00083,0,0,1,4.40779,4.9653v8a5,5,0,0,1-5,5h-6a5,5,0,0,1-5-5v-8a5.00051,5.00051,0,0,1,4.55373-4.98036" transform="translate(-162.66981 -170.68047)"/><rect class="cls-3" x="8.77385" y="2.00239" width="6.4524" height="3.96703" rx="1.98351"/><path class="cls-2" d="M177.89974,174.71813a1.948,1.948,0,0,1-.58,1.35,1.98747,1.98747,0,0,1-1.41.58h-2.48a1.9871,1.9871,0,0,1-1.99-1.95Z" transform="translate(-162.66981 -170.68047)"/><path class="cls-2" d="M177.89974,174.66814v.05l-6.46-.02v-.03a1.98038,1.98038,0,0,1,1.99-1.99h2.48A1.9888,1.9888,0,0,1,177.89974,174.66814Z" transform="translate(-162.66981 -170.68047)"/></g></svg>