<svg id="Layer_1" data-name="Layer 1" xmlns="http://www.w3.org/2000/svg" viewBox="0 0 24 24"><defs><style>.cls-1,.cls-3,.cls-4{fill:none;}.cls-2{fill:#4722ff;opacity:0.1;}.cls-3,.cls-4{stroke:#4722ff;stroke-linecap:round;stroke-width:1.5px;}.cls-3{stroke-miterlimit:10;}.cls-4{stroke-linejoin:round;}</style></defs><title>Message</title><rect class="cls-1" width="24" height="24"/><g id="Message"><path class="cls-2" d="M184.1705,183.13444V179.683a5,5,0,0,0-5-5h-10a5,5,0,0,0-5,5v3.4514a5,5,0,0,0,4.21168,4.93746h0a6.73889,6.73889,0,0,1,2.9297,1.22552l1.08136.79517a3,3,0,0,0,3.55448,0l1.08137-.79518a6.73887,6.73887,0,0,1,2.92971-1.22551h0A5,5,0,0,0,184.1705,183.13444Z" transform="translate(-162.1705 -170.67936)"/><path class="cls-3" d="M184.1705,183.13444V179.683a5,5,0,0,0-5-5h-10a5,5,0,0,0-5,5v3.4514a5,5,0,0,0,4.21168,4.93746h0a6.73889,6.73889,0,0,1,2.9297,1.22552l1.08136.79517a3,3,0,0,0,3.55448,0l1.08137-.79518a6.73887,6.73887,0,0,1,2.92971-1.22551h0A5,5,0,0,0,184.1705,183.13444Z" transform="translate(-162.1705 -170.67936)"/><line class="cls-4" x1="14.71978" y1="12" x2="9.28022" y2="12"/></g></svg>