<svg id="Layer_1" data-name="Layer 1" xmlns="http://www.w3.org/2000/svg" viewBox="0 0 24 24"><defs><style>.cls-1{fill:#fff;opacity:0;}.cls-2,.cls-3{fill:none;stroke:#030835;stroke-linecap:round;}.cls-2{stroke-miterlimit:10;stroke-width:1.5px;}.cls-3{stroke-linejoin:round;}</style></defs><title>Message</title><rect class="cls-1" width="24" height="24"/><g id="Message"><path class="cls-2" d="M191.39575,178.8971v-3.4514a5,5,0,0,0-5-5h-10a5,5,0,0,0-5,5v3.4514a5,5,0,0,0,4.21168,4.93746h0a6.73883,6.73883,0,0,1,2.9297,1.22551l1.08137.79517a3,3,0,0,0,3.55447,0l1.08138-.79517a6.73872,6.73872,0,0,1,2.9297-1.22552h0A5,5,0,0,0,191.39575,178.8971Z" transform="translate(-169.39575 -166.44202)"/><line class="cls-3" x1="14.71978" y1="12" x2="9.28022" y2="12"/></g></svg>