<svg id="Layer_1" data-name="Layer 1" xmlns="http://www.w3.org/2000/svg" viewBox="0 0 24 24"><defs><style>.cls-1,.cls-3{fill:none;}.cls-2{fill:#4de5f4;opacity:0.1;}.cls-3{stroke:#4de5f4;stroke-linecap:round;stroke-miterlimit:10;stroke-width:1.5px;}</style></defs><title>Moon</title><rect class="cls-1" width="24" height="24"/><g id="Moon"><path class="cls-2" d="M175.9993,174.59291a10.43064,10.43064,0,0,1-.8987,3.793,11.19849,11.19849,0,0,1-5.73738,5.72881,10.43255,10.43255,0,0,1-3.77582.89138,1.99388,1.99388,0,0,0-1.52447,3.18176,10.82936,10.82936,0,1,0,15.118-15.1182A1.99364,1.99364,0,0,0,175.9993,174.59291Z" transform="translate(-161.67067 -170.6774)"/><path class="cls-3" d="M175.9993,174.59291a10.43064,10.43064,0,0,1-.8987,3.793,11.19849,11.19849,0,0,1-5.73738,5.72881,10.43255,10.43255,0,0,1-3.77582.89138,1.99388,1.99388,0,0,0-1.52447,3.18176,10.82936,10.82936,0,1,0,15.118-15.1182A1.99364,1.99364,0,0,0,175.9993,174.59291Z" transform="translate(-161.67067 -170.6774)"/></g></svg>