<svg id="Layer_1" data-name="Layer 1" xmlns="http://www.w3.org/2000/svg" viewBox="0 0 24 24"><defs><style>.cls-1,.cls-3,.cls-4{fill:none;}.cls-2{fill:#e54141;opacity:0.1;}.cls-3,.cls-4{stroke:#e54141;stroke-linecap:round;stroke-width:1.5px;}.cls-3{stroke-linejoin:round;}.cls-4{stroke-miterlimit:10;}</style></defs><title>Notification</title><rect class="cls-1" width="24" height="24"/><g id="Notification"><path class="cls-2" d="M184.67034,187.6717h0a2.39133,2.39133,0,0,1-2.39194,2.39072H167.06228a2.39133,2.39133,0,0,1-2.39194-2.39072h0a2.39033,2.39033,0,0,1,.98507-1.93346h0a4.28268,4.28268,0,0,0,1.76492-3.46414V180.194a7.42534,7.42534,0,0,1,6.72856-7.49437,7.25372,7.25372,0,0,1,7.77145,7.228v2.34651a4.28266,4.28266,0,0,0,1.76492,3.46413h0A2.39033,2.39033,0,0,1,184.67034,187.6717Z" transform="translate(-162.67034 -170.68132)"/><line class="cls-3" x1="13.64847" y1="22" x2="10.35153" y2="22"/><line class="cls-3" x1="12" y1="7.35903" x2="12" y2="10.65428"/><path class="cls-4" d="M184.67034,187.6717h0a2.39133,2.39133,0,0,1-2.39194,2.39072H167.06228a2.39133,2.39133,0,0,1-2.39194-2.39072h0a2.39033,2.39033,0,0,1,.98507-1.93346h0a4.28268,4.28268,0,0,0,1.76492-3.46414V180.194a7.42534,7.42534,0,0,1,6.72856-7.49437,7.25372,7.25372,0,0,1,7.77145,7.228v2.34651a4.28266,4.28266,0,0,0,1.76492,3.46413h0A2.39033,2.39033,0,0,1,184.67034,187.6717Z" transform="translate(-162.67034 -170.68132)"/></g></svg>