<svg id="Layer_1" data-name="Layer 1" xmlns="http://www.w3.org/2000/svg" viewBox="0 0 24 24"><defs><style>.cls-1{fill:#fff;opacity:0;}.cls-2,.cls-3{fill:none;stroke:#030835;stroke-linecap:round;}.cls-2{stroke-linejoin:round;}.cls-3{stroke-miterlimit:10;stroke-width:1.5px;}</style></defs><title>Notification</title><rect class="cls-1" width="24" height="24"/><g id="Notification"><line class="cls-2" x1="13.64847" y1="22.00511" x2="10.35153" y2="22.00511"/><line class="cls-2" x1="12" y1="7.35666" x2="12" y2="10.65359"/><path class="cls-3" d="M105.28571,269.75867h0a2.39194,2.39194,0,0,1-2.39194,2.392H87.67766a2.392,2.392,0,0,1-2.392-2.392h0a2.392,2.392,0,0,1,.98507-1.93445h0a4.28556,4.28556,0,0,0,1.76493-3.46591v-2.08121a7.42772,7.42772,0,0,1,6.72856-7.49819,7.25534,7.25534,0,0,1,7.77145,7.2317v2.34771a4.28557,4.28557,0,0,0,1.76492,3.4659h0A2.392,2.392,0,0,1,105.28571,269.75867Z" transform="translate(-83.28571 -252.76573)"/></g></svg>