<svg id="Layer_1" data-name="Layer 1" xmlns="http://www.w3.org/2000/svg" viewBox="0 0 24 24"><defs><style>.cls-1,.cls-3,.cls-4{fill:none;}.cls-2{fill:#0a3f2e;opacity:0.1;}.cls-3,.cls-4{stroke:#0a3f2e;stroke-linecap:round;stroke-width:1.5px;}.cls-3{stroke-miterlimit:10;}.cls-4{stroke-linejoin:round;}</style></defs><title>Pen</title><rect class="cls-1" width="24" height="24"/><g id="Pen"><path class="cls-2" d="M168.08825,192.40237l-2.86948.27658a.50023.50023,0,0,1-.54591-.54592l.27657-2.86947a4.88872,4.88872,0,0,1,1.40932-2.98781L178.9762,173.6583a3.33563,3.33563,0,0,1,4.7173,0h0a3.33565,3.33565,0,0,1,0,4.7173l-12.61745,12.61745A4.88872,4.88872,0,0,1,168.08825,192.40237Z" transform="translate(-162.67049 -170.68131)"/><path class="cls-3" d="M168.08825,192.40237l-2.86948.27658a.50023.50023,0,0,1-.54591-.54592l.27657-2.86947a4.88872,4.88872,0,0,1,1.40932-2.98781L178.9762,173.6583a3.33563,3.33563,0,0,1,4.7173,0h0a3.33565,3.33565,0,0,1,0,4.7173l-12.61745,12.61745A4.88872,4.88872,0,0,1,168.08825,192.40237Z" transform="translate(-162.67049 -170.68131)"/><line class="cls-4" x1="18.51484" y1="5.48516" x2="16.78157" y2="7.21842"/></g></svg>