<svg id="Layer_1" data-name="Layer 1" xmlns="http://www.w3.org/2000/svg" viewBox="0 0 24 24"><defs><style>.cls-1,.cls-2{fill:none;}.cls-2{stroke:#3e0377;stroke-miterlimit:10;stroke-width:1.5px;}.cls-3{opacity:0.1;}.cls-4{fill:#3e0377;}</style></defs><title>Profile</title><rect class="cls-1" width="24" height="24"/><g id="Profile"><path class="cls-2" d="M178.18588,174.84836c-.97137-1.16611-2.19075-2.16707-3.51485-2.16707s-2.54349,1.001-3.51485,2.16707a4.53642,4.53642,0,0,0,.3,6.103h.00006a4.54643,4.54643,0,0,0,6.42959,0h.00006A4.53642,4.53642,0,0,0,178.18588,174.84836Z" transform="translate(-162.67098 -170.68129)"/><rect class="cls-2" x="2" y="15.30177" width="20" height="6.69823" rx="3.34911"/><g class="cls-3"><path class="cls-4" d="M178.18588,174.84836c-.97137-1.16611-2.19075-2.16707-3.51485-2.16707s-2.54349,1.001-3.51485,2.16707a4.53642,4.53642,0,0,0,.3,6.103h.00006a4.54643,4.54643,0,0,0,6.42959,0h.00006A4.53642,4.53642,0,0,0,178.18588,174.84836Z" transform="translate(-162.67098 -170.68129)"/><rect class="cls-4" x="2" y="15.30177" width="20" height="6.69823" rx="3.34911"/></g></g></svg>