<svg id="Layer_1" data-name="Layer 1" xmlns="http://www.w3.org/2000/svg" viewBox="0 0 24 24"><defs><style>.cls-1,.cls-3{fill:none;}.cls-2{fill:#e2009d;opacity:0.1;}.cls-3{stroke:#e2009d;stroke-miterlimit:10;stroke-width:1.5px;}</style></defs><title>Send</title><rect class="cls-1" width="24" height="24"/><g id="Send"><path class="cls-2" d="M164.92986,176.38756l2.40954,5.20044a2.6005,2.6005,0,0,1,0,2.18664l-2.40954,5.20044a2.60369,2.60369,0,0,0,3.52865,3.42108l14.77752-7.38237a2.60677,2.60677,0,0,0,0-4.66494l-14.77752-7.38238A2.6037,2.6037,0,0,0,164.92986,176.38756Z" transform="translate(-162.67883 -170.68132)"/><path class="cls-3" d="M164.92986,176.38756l2.40954,5.20044a2.6005,2.6005,0,0,1,0,2.18664l-2.40954,5.20044a2.60369,2.60369,0,0,0,3.52865,3.42108l14.77752-7.38237a2.60677,2.60677,0,0,0,0-4.66494l-14.77752-7.38238A2.6037,2.6037,0,0,0,164.92986,176.38756Z" transform="translate(-162.67883 -170.68132)"/></g></svg>