<svg id="Layer_1" data-name="Layer 1" xmlns="http://www.w3.org/2000/svg" viewBox="0 0 24 24"><defs><style>.cls-1,.cls-3{fill:none;}.cls-2{fill:#001975;opacity:0.1;}.cls-3{stroke:#001975;stroke-linecap:round;stroke-miterlimit:10;stroke-width:1.5px;}</style></defs><title>Setting</title><rect class="cls-1" width="24" height="24"/><g id="Setting"><path class="cls-2" d="M182.1738,179.14735l-1.42615-.24235a2.80362,2.80362,0,0,1-2.29428-2.29428l-.24236-1.42621a3,3,0,0,0-2.9576-2.4974H174.089a3,3,0,0,0-2.9576,2.4974l-.24236,1.42621a2.8036,2.8036,0,0,1-2.29428,2.29428l-1.4262.24236a3,3,0,0,0-2.49741,2.9576v1.16436a3,3,0,0,0,2.49741,2.9576l1.42621.24236a2.80359,2.80359,0,0,1,2.29427,2.29427l.24236,1.42616a3,3,0,0,0,2.9576,2.4974h1.16437a3,3,0,0,0,2.9576-2.4974l.24235-1.42616a2.80358,2.80358,0,0,1,2.29428-2.29427l1.42615-.24236a3,3,0,0,0,2.4974-2.9576V182.105A3,3,0,0,0,182.1738,179.14735Z" transform="translate(-162.6712 -170.68711)"/><path class="cls-3" d="M182.1738,179.14735l-1.42615-.24235a2.80362,2.80362,0,0,1-2.29428-2.29428l-.24236-1.42621a3,3,0,0,0-2.9576-2.4974H174.089a3,3,0,0,0-2.9576,2.4974l-.24236,1.42621a2.8036,2.8036,0,0,1-2.29428,2.29428l-1.4262.24236a3,3,0,0,0-2.49741,2.9576v1.16436a3,3,0,0,0,2.49741,2.9576l1.42621.24236a2.80359,2.80359,0,0,1,2.29427,2.29427l.24236,1.42616a3,3,0,0,0,2.9576,2.4974h1.16437a3,3,0,0,0,2.9576-2.4974l.24235-1.42616a2.80358,2.80358,0,0,1,2.29428-2.29427l1.42615-.24236a3,3,0,0,0,2.4974-2.9576V182.105A3,3,0,0,0,182.1738,179.14735Z" transform="translate(-162.6712 -170.68711)"/><circle class="cls-3" cx="12" cy="12" r="1.75"/></g></svg>