<svg id="Layer_1" data-name="Layer 1" xmlns="http://www.w3.org/2000/svg" viewBox="0 0 24 24"><defs><style>.cls-1{fill:#fff;opacity:0;}.cls-2,.cls-3{fill:none;stroke:#030835;stroke-linecap:round;stroke-miterlimit:10;}.cls-2{stroke-width:1.5px;}</style></defs><title>Setting</title><rect class="cls-1" width="24" height="24"/><g id="Setting"><path class="cls-2" d="M188.9,174.86929l-1.42615-.24236a2.8036,2.8036,0,0,1-2.29428-2.29428l-.24236-1.42621a3,3,0,0,0-2.9576-2.4974h-1.16436a3,3,0,0,0-2.9576,2.4974l-.24236,1.42621a2.8036,2.8036,0,0,1-2.29428,2.29428l-1.42621.24236a3,3,0,0,0-2.4974,2.9576v1.16436a3,3,0,0,0,2.4974,2.9576l1.42621.24236a2.8036,2.8036,0,0,1,2.29428,2.29428l.24236,1.42615a3,3,0,0,0,2.9576,2.4974h1.16437a3,3,0,0,0,2.95759-2.4974l.24236-1.42616a2.8036,2.8036,0,0,1,2.29427-2.29427l1.42616-.24236a3,3,0,0,0,2.4974-2.95759v-1.16437A3,3,0,0,0,188.9,174.86929Z" transform="translate(-169.39739 -166.40904)"/><circle class="cls-3" cx="12" cy="12" r="1.75"/></g></svg>