<svg id="Layer_1" data-name="Layer 1" xmlns="http://www.w3.org/2000/svg" viewBox="0 0 24 24"><defs><style>.cls-1,.cls-3{fill:none;}.cls-2{fill:#7a1cf4;opacity:0.1;}.cls-3{stroke:#7a1cf4;stroke-linecap:round;stroke-miterlimit:10;stroke-width:1.5px;}</style></defs><title>Share</title><rect class="cls-1" width="24" height="24"/><g id="Share"><ellipse class="cls-2" cx="18.48892" cy="5.50516" rx="3.51099" ry="3.50516"/><ellipse class="cls-2" cx="18.48892" cy="18.49484" rx="3.51099" ry="3.50516"/><path class="cls-2" d="M171.69045,182.66736a3.41713,3.41713,0,0,1-.37,1.56734,3.50416,3.50416,0,1,1,0-3.13474A3.4172,3.4172,0,0,1,171.69045,182.66736Z" transform="translate(-162.67033 -170.68132)"/><ellipse class="cls-3" cx="18.48892" cy="5.50516" rx="3.51099" ry="3.50516"/><ellipse class="cls-3" cx="18.48892" cy="18.49484" rx="3.51099" ry="3.50516"/><line class="cls-3" x1="12.53012" y1="8.48186" x2="8.65012" y2="10.41863"/><line class="cls-3" x1="12.53012" y1="15.4902" x2="8.65012" y2="13.55342"/><path class="cls-3" d="M171.69045,182.66736a3.41713,3.41713,0,0,1-.37,1.56734,3.50416,3.50416,0,1,1,0-3.13474A3.4172,3.4172,0,0,1,171.69045,182.66736Z" transform="translate(-162.67033 -170.68132)"/></g></svg>