<svg id="Layer_1" data-name="Layer 1" xmlns="http://www.w3.org/2000/svg" viewBox="0 0 24 24"><defs><style>.cls-1{fill:#fff;opacity:0;}.cls-2{fill:none;stroke:#030835;stroke-linecap:round;stroke-miterlimit:10;stroke-width:1.5px;}</style></defs><title>Star</title><rect class="cls-1" width="24" height="24"/><g id="Star"><path class="cls-2" d="M179.91029,187.1513l-1.8587,1.01868a2.04864,2.04864,0,0,1-3.01773-2.10788l.42672-2.59362a4.04634,4.04634,0,0,0-1.11291-3.4963l-1.86665-1.89681a2.02973,2.02973,0,0,1,1.15871-3.4316l2.32027-.35147a4.1,4.1,0,0,0,3.095-2.29318l1.20167-2.53825a1.81714,1.81714,0,0,1,3.27783,0l1.20167,2.53825a4.1,4.1,0,0,0,3.095,2.29318l2.32027.35147a2.02973,2.02973,0,0,1,1.15871,3.4316l-1.86665,1.89681a4.04634,4.04634,0,0,0-1.11291,3.4963l.42672,2.59362a2.04864,2.04864,0,0,1-3.01773,2.10788l-1.8587-1.01868A4.13465,4.13465,0,0,0,179.91029,187.1513Z" transform="translate(-169.8956 -166.42856)"/></g></svg>