<svg id="Layer_1" data-name="Layer 1" xmlns="http://www.w3.org/2000/svg" viewBox="0 0 24 24"><defs><style>.cls-1,.cls-3{fill:none;}.cls-2{fill:#2e42a3;opacity:0.1;}.cls-3{stroke:#2e42a3;stroke-linecap:round;stroke-miterlimit:10;stroke-width:1.5px;}</style></defs><title>Star</title><rect class="cls-1" width="24" height="24"/><g id="Star"><path class="cls-2" d="M172.74087,191.77451l-1.85871,1.01868a2.04863,2.04863,0,0,1-3.01772-2.10787l.42672-2.59363a4.04634,4.04634,0,0,0-1.11292-3.4963l-1.86665-1.89681a2.02973,2.02973,0,0,1,1.15871-3.43159l2.32028-.35148a4.10005,4.10005,0,0,0,3.095-2.29317l1.20166-2.53826a1.81716,1.81716,0,0,1,3.27784,0l1.20166,2.53826a4.10005,4.10005,0,0,0,3.095,2.29317l2.32027.35148a2.02973,2.02973,0,0,1,1.15872,3.43159l-1.86665,1.89681a4.04634,4.04634,0,0,0-1.11292,3.4963l.42672,2.59363a2.04863,2.04863,0,0,1-3.01772,2.10787l-1.85871-1.01868A4.13469,4.13469,0,0,0,172.74087,191.77451Z" transform="translate(-162.72618 -171.05178)"/><path class="cls-3" d="M172.74087,191.77451l-1.85871,1.01868a2.04863,2.04863,0,0,1-3.01772-2.10787l.42672-2.59363a4.04634,4.04634,0,0,0-1.11292-3.4963l-1.86665-1.89681a2.02973,2.02973,0,0,1,1.15871-3.43159l2.32028-.35148a4.10005,4.10005,0,0,0,3.095-2.29317l1.20166-2.53826a1.81716,1.81716,0,0,1,3.27784,0l1.20166,2.53826a4.10005,4.10005,0,0,0,3.095,2.29317l2.32027.35148a2.02973,2.02973,0,0,1,1.15872,3.43159l-1.86665,1.89681a4.04634,4.04634,0,0,0-1.11292,3.4963l.42672,2.59363a2.04863,2.04863,0,0,1-3.01772,2.10787l-1.85871-1.01868A4.13469,4.13469,0,0,0,172.74087,191.77451Z" transform="translate(-162.72618 -171.05178)"/></g></svg>