<svg id="Layer_1" data-name="Layer 1" xmlns="http://www.w3.org/2000/svg" viewBox="0 0 24 24"><defs><style>.cls-1,.cls-3{fill:none;}.cls-2{fill:#f9d523;opacity:0.1;}.cls-3{stroke:#f9d523;stroke-linecap:round;stroke-miterlimit:10;stroke-width:1.5px;}</style></defs><title>Trash</title><rect class="cls-1" width="24" height="24"/><g id="Trash"><path class="cls-2" d="M5.53955,6.56513h12.9209A1.03955,1.03955,0,0,1,19.5,7.60468V17a5,5,0,0,1-5,5h-5a5,5,0,0,1-5-5V7.60468A1.03955,1.03955,0,0,1,5.53955,6.56513Z"/><path class="cls-3" d="M5.54089,6.56513h12.9209a1.03955,1.03955,0,0,1,1.03955,1.03955V17a5,5,0,0,1-5,5h-5a5,5,0,0,1-5-5V7.60468A1.03955,1.03955,0,0,1,5.54089,6.56513Z"/><line class="cls-3" x1="12.00134" y1="17.91746" x2="12.00134" y2="13.86251"/><line class="cls-3" x1="4.48657" y1="4.06593" x2="19.51343" y2="4.06593"/><path class="cls-3" d="M176.66558,174.69623a1.99176,1.99176,0,1,0-3.98352,0" transform="translate(-162.67382 -170.70447)"/></g></svg>