<svg id="Layer_1" data-name="Layer 1" xmlns="http://www.w3.org/2000/svg" viewBox="0 0 24 24"><defs><style>.cls-1,.cls-3{fill:none;}.cls-2{fill:#2f2f82;opacity:0.1;}.cls-3{stroke:#2f2f82;stroke-linecap:round;stroke-miterlimit:10;stroke-width:1.5px;}</style></defs><title>Wallet</title><rect class="cls-1" width="24" height="24"/><g id="Wallet"><path class="cls-2" d="M182.37373,178.35029a4.99745,4.99745,0,0,0-2.7-.78949h-10a4.98634,4.98634,0,0,0-3.577,1.50408,4.94042,4.94042,0,0,1,1.23694-.95443l7.26-3.84759a5.00537,5.00537,0,0,1,6.76,2.07867l.75,1.41916A6.27131,6.27131,0,0,1,182.37373,178.35029Z" transform="translate(-162.67152 -170.68206)"/><path class="cls-2" d="M184.67378,182.55771v4.12744a5.00031,5.00031,0,0,1-5,4.99691h-10a4.99387,4.99387,0,0,1-5-4.99691V182.5277a5.33356,5.33356,0,0,1,.1-.97938c.03-.15987.08-.31981.12-.47968a5.01226,5.01226,0,0,1,4.78-3.50784h10a4.99526,4.99526,0,0,1,5,4.99691Z" transform="translate(-162.67152 -170.68206)"/><path class="cls-3" d="M164.66934,182.55879a4.99593,4.99593,0,0,1,2.66048-4.4487l7.26485-3.84581a5.00155,5.00155,0,0,1,6.75885,2.07669l.751,1.4169a5.04293,5.04293,0,0,1,.26849.59693" transform="translate(-162.67152 -170.68206)"/><rect class="cls-3" x="1.99774" y="6.87983" width="20" height="14.11866" rx="5"/><line class="cls-3" x1="14.71752" y1="13.93916" x2="9.27796" y2="13.93916"/></g></svg>