<svg id="Layer_1" data-name="Layer 1" xmlns="http://www.w3.org/2000/svg" viewBox="0 0 24 24"><defs><style>.cls-1,.cls-3,.cls-4{fill:none;}.cls-2{fill:#ffc010;opacity:0.1;}.cls-3,.cls-4{stroke:#ffc010;stroke-linecap:round;stroke-width:1.5px;}.cls-3{stroke-miterlimit:10;}.cls-4{stroke-linejoin:round;}</style></defs><title>Wishlist</title><rect class="cls-1" width="24" height="24"/><g id="Wishlist"><path class="cls-2" d="M182.67207,177.69392v13a2.00442,2.00442,0,0,1-3.2,1.6l-3-2.25a3.00017,3.00017,0,0,0-3.60009,0l-3,2.25a2.0044,2.0044,0,0,1-3.2-1.6v-13a5.00182,5.00182,0,0,1,5-5h6A5.00181,5.00181,0,0,1,182.67207,177.69392Z" transform="translate(-162.67207 -170.6929)"/><path class="cls-3" d="M166.67207,190.68926V177.6929a5,5,0,0,1,5-5h6a5,5,0,0,1,5,5v12.99636a2,2,0,0,1-3.2,1.6l-3-2.25a3,3,0,0,0-3.6,0l-3,2.25A2,2,0,0,1,166.67207,190.68926Z" transform="translate(-162.67207 -170.6929)"/><line class="cls-4" x1="9.28022" y1="9" x2="14.71978" y2="9"/></g></svg>